#!OML:ASF F:\VICON\USERDATA\INSTALL\rory3\rory3.ASF
:FULLY-SPECIFIED
:DEGREES
81
root 0.4769459157235188 17.833426571927056 39.35544831548647 -1.6949307480061195 -4.003826073982421 -8.155290087421116
lfemur -28.652856694834437 -0.3907135179173765 -9.186497640327298
ltibia 42.914661824249286
lfoot -6.8641926657150005 5.341240580323373
ltoes -6.106458434828396
rfemur 1.557047425278581 6.937963646926633 36.51124117245749
rtibia 24.931219829288814
rfoot -21.841112116887924 -8.732990698091223
rtoes 11.025128838459668
lowerback 10.116141924155377 1.715376866573611 6.971119836997615
upperback 0.4796031305628449 3.210271670322221 2.477636342609957
thorax -4.825413338179244 1.4425897571554283 -1.8028721296893715
lowerneck -15.888851666751012 -2.780097411576274 -2.085862415683761
upperneck 19.477449347535515 -3.5016800358996605 0.9800989726851416
head 8.73237076920311 -1.7118791355554153 0.23093619313073993
lclavicle -2.864036063864431e-16 -2.877336648278504e-16
lhumerus -33.899911954186344 7.269610468861774 80.94112141239702
lradius 24.87397760624576
lwrist 5.255442787478271
lhand -30.789484700807343 18.87912313747971
lfingers 7.125020000000059
lthumb -4.079468085210603 48.85678148352639
rclavicle -2.864036063864431e-16 -2.877336648278504e-16
rhumerus -22.447565153716845 -9.156595975663004 -82.24605056686494
rradius 32.41919418174817
rwrist -1.6206506220276675
rhand -17.52347439579613 30.712927287889308
rfingers 7.125020000000059
rthumb 8.730566457039945 -6.135138130406041
82
root 0.47494319085853215 17.753071803975732 39.431279606166214 -0.845137685900356 -4.613640776499479 -8.649896303942812
lfemur -28.545889426215307 -3.110888404404152 -7.669007223612226
ltibia 29.191495929004503
lfoot -6.295652211313268 7.869085142370669
ltoes -6.077758364407297
rfemur 4.4625936043438 7.082440641540931 36.976824896679524
rtibia 22.383009180422302
rfoot -23.42659954472272 -8.905208145506737
rtoes 7.981325341700929
lowerback 9.719262414541204 1.988092951051165 7.4579776272220855
upperback 0.4045649172574091 3.6059243583072615 2.4706623076959753
thorax -4.657596038966435 1.629380362456042 -2.152898485021524
lowerneck -16.178891024381294 -2.7952733238935625 -2.0016505765056043
upperneck 19.178304125342407 -3.539836677440967 0.9796168269932392
head 8.68417617393514 -1.7211399927045252 0.21180328846001872
lclavicle -4.4094704424858813e-16 -4.0739709150871596e-16
lhumerus -34.8133964501843 9.265533248955615 80.07530815843967
lradius 23.189024389906955
lwrist 4.4295798195491685
lhand -30.740959165630045 19.323032970356753
lfingers 7.125020000000058
lthumb -4.0325985233087005 49.300326082564865
rclavicle -4.4094704424858813e-16 -4.0739709150871596e-16
rhumerus -20.656917949942308 -8.002822005481281 -82.57053686801112
rradius 33.624054248861796
rwrist -2.6624526796904338
rhand -17.592687720091618 30.8605550256454
rfingers 7.125020000000058
rthumb 8.663718184511152 -5.6136944203238395
83
root 0.4760934229653151 17.67162401261198 39.369356452377346 -0.22311672051631426 -5.0382734914085034 -8.852031904800642
lfemur -27.868226635280415 -5.321373650854035 -6.6714568040710365
ltibia 18.396746948145925
lfoot -5.632684499226406 8.994567655720996
ltoes -6.293534877660722
rfemur 7.488825198952748 7.2017297687511626 37.06385477971533
rtibia 20.751047003900887
rfoot -24.614154589617662 -8.602913121571316
rtoes 3.7077910944133072
lowerback 9.333848997140276 2.2136111264633396 7.636531542261144
upperback 0.34576948258729573 3.900262949546479 2.4398097945091415
thorax -4.486623344249937 1.7740315052341242 -2.318313433467592
lowerneck -16.361800045586925 -2.8334664512017342 -1.92611906266314
upperneck 19.038386823934466 -3.6180428723227127 1.0189116602992925
head 8.67267791598187 -1.747144478275544 0.2030932286937216
lclavicle -5.056416220717582e-16 -4.574902865611827e-16
lhumerus -35.59846470841474 11.337773703693028 79.16705130392599
lradius 21.342703369562507
lwrist 3.3246147793830403
lhand -30.56713439744525 19.95676792444372
lfingers 7.125020000000058
lthumb -3.864721447031564 49.93459249148168
rclavicle -5.056416220717582e-16 -4.574902865611827e-16
rhumerus -19.215717940544646 -7.725797066813458 -82.55645746083664
rradius 34.40959412379466
rwrist -3.045869480416081
rhand -17.636382546616726 30.96118087932831
rfingers 7.125020000000058
rthumb 8.6215547979334 -5.373556959308725
84
root 0.46710167785570156 17.591108314465448 38.88210020813163 -0.06273482756535698 -5.314342602803521 -8.777066424583921
lfemur -27.572190403788497 -6.382134808424224 -6.821582640257811
ltibia 12.352221871482527
lfoot -5.013062106563147 8.117036775906556
ltoes -6.569077374500735
rfemur 9.828021533645321 7.131694448962303 36.54766315588711
rtibia 20.152005368215267
rfoot -25.143491355085512 -7.800223408026081
rtoes -1.548763361969864
lowerback 8.993012536536042 2.331121326638814 7.4108976102821424
upperback 0.2941811176054098 4.010031801242575 2.327178051538566
thorax -4.4075718056782 1.8363543721221314 -2.3883324503198176
lowerneck -16.44769254446781 -2.925804834095932 -1.8961758383397913
upperneck 18.957788779297285 -3.7772329914739027 1.0528235075042884
head 8.664080400607943 -1.8088874321867678 0.19440126581957623
lclavicle -9.804367167783106e-16 -8.251254988367895e-16
lhumerus -36.61142794310949 13.108225825084157 78.06602429013623
lradius 18.59936623765182
lwrist 1.6477725934353575
lhand -30.352264527833597 20.206867406199343
lfingers 7.125020000000057
lthumb -3.6572047230543285 50.18473022519681
rclavicle -9.804367167783106e-16 -8.251254988367895e-16
rhumerus -18.67161239611769 -8.556549947778024 -82.6075471592482
rradius 33.97688246907332
rwrist -3.200825572128675
rhand -17.71986001303951 30.80273445282523
rfingers 7.125020000000057
rthumb 8.541017731349916 -5.452188220577543
